<svg xmlns="http://www.w3.org/2000/svg" viewBox="0 0 24 24" fill="#fff"><rect width="24" height="24" rx="5" fill="#1da1f2"/><path d="M19.633 7.997c.013.176.013.353.013.53 0 5.39-4.104 11.61-11.61 11.61-2.307 0-4.453-.676-6.26-1.84.32.038.637.05.97.05 1.92 0 3.687-.65 5.096-1.747-1.8-.037-3.32-1.22-3.843-2.85.252.037.504.063.77.063.37 0 .74-.05 1.085-.144-1.877-.38-3.29-2.03-3.29-4.017v-.05c.553.307 1.19.49 1.87.514a4.07 4.07 0 0 1-1.81-3.39c0-.75.2-1.45.553-2.05a11.64 11.64 0 0 0 8.44 4.28c-.062-.3-.1-.61-.1-.93a4.07 4.07 0 0 1 7.04-3.71 8.13 8.13 0 0 0 2.58-.98 4.07 4.07 0 0 1-1.79 2.25 8.13 8.13 0 0 0 2.34-.64 8.7 8.7 0 0 1-2.04 2.12z" fill="#fff"/></svg>
